<?xml version="1.0" encoding="UTF-8"?>
<svg id="Ebene_2" xmlns="http://www.w3.org/2000/svg" viewBox="0 0 1360.41 982.36">
    <defs>
        <style>.cls-1{stroke-width:0px;}</style>
    </defs>
    <g id="Ebene_1-2">
        <path class="cls-1" fill="currentColor"
              d="m257.03,99.8h844.56c5.55-21.67,7.61-42.33,16.05-59.93,14.61-30.49,50.49-44.91,82.55-37.28,40.59,9.66,62.84,37.66,63.12,83.92.68,112.63.22,225.27.23,337.91,0,12.29,0,24.58,0,38.2,9.89,2.86,18.26,5.22,26.59,7.69,44.33,13.16,69.52,45.24,69.68,91.74.44,127.28-.41,254.57.6,381.84.22,27.91-9.71,38.55-37.43,37.52-38.24-1.42-76.61-1.19-114.87-.02-20.69.63-32.77-6.73-41.88-25.74-27.69-57.74-73.8-95.65-134.14-115.71-11.97-3.98-29.11-8.11-38.19-2.68-96.13,57.44-203.37,65.22-309.95,63.3-81.29-1.46-162.31-18.81-243.37-29.68-9.81-1.32-20.67-4.28-28.4-10.03-66.21-49.29-114.8-8.45-162.87,31.73-12.74,10.65-27.08,23.86-31.84,38.73-15.99,50.01-52.59,53.37-95.66,50.19-30.25-2.23-60.8-.84-91.2-.4C9.49,981.42-.06,972.32,0,950.74c.36-131.78-.53-263.58.62-395.35.42-47.59,28.87-73.7,95.94-92.58,0-32.29-.05-65.75,0-99.2.16-92.36-.23-184.73.78-277.08C97.88,37.68,123.52,7.46,166.75.73c32.1-5,70.02,16.11,81.17,47.81,5.47,15.54,6.01,32.81,9.11,51.26Zm1055.64,835.16c0-125.13.18-244.42-.1-363.71-.1-41.71-17.1-58.19-60.32-58.21-381.74-.15-763.48-.16-1145.22.01-42.76.02-59.28,16.73-59.35,59.01-.2,112.61-.1,225.21.03,337.82,0,7.47,1.34,14.94,2.33,25.25,26.41,0,51.18-1.85,75.54.51,24.77,2.4,38.29-7.42,50.98-28.04,36.31-59.01,90.5-95.77,156.03-116.35,24.24-7.61,45.77-8.95,68.69,9.92,17.39,14.31,41.76,21.97,64.27,27.91,111.31,29.39,224.55,33.44,338.14,18.14,62.15-8.37,124.85-17.61,176.45-59.66,6.05-4.93,19.35-3.17,28.73-1.44,81.77,15.04,145.11,57.39,189.4,128.32,5.28,8.45,15.16,18.88,23.66,19.6,28.86,2.44,58.05.93,90.73.93Zm-205.27-568.1c40.42,17.62,73.5,32.04,109.13,47.57,0-67.03,0-134.24,0-201.44,0-42.82,2.46-85.87-1.48-128.33-1.23-13.27-18.12-32.94-30.73-35.51-20.43-4.17-30.36,14.54-31.38,35.01-.28,5.62-.17,11.26-.25,16.9-.62,47.08-1.08,47.68-47.07,47.69-280.59.05-561.18.03-841.77.02-54.15,0-54.5-.02-55.69-55.52-.51-23.63-5.61-46.09-33.32-45-27.07,1.06-31.44,23.66-31.23,47.24.51,56.34,0,112.68-.03,169.03-.04,50.17,0,100.35,0,149.77,37.12-16.02,71.2-30.73,109.34-47.19,0-19.94-.54-44.63.11-69.29,1.37-52.31,27.57-80.05,79.01-80.71,79.99-1.03,160.02-.99,240.02-.03,54.38.65,80.03,27.29,81.3,81.73.6,25.38.1,50.79.1,75.44h53.41c0-28.2-.87-54.04.18-79.79,2.06-50.29,28.1-76.7,78.66-77.34,81.12-1.03,162.28-1.11,243.39.07,49.76.72,76.55,28.67,78.13,78.25.82,25.7.14,51.45.14,71.43Zm-930.99,96.4h1007.48c-22.56-27.26-47.02-39.14-78.68-39.1-283.65.4-567.29.41-850.94.02-31.67-.04-55.68,12.25-77.86,39.08Zm123.2-88.68h307.11c0-28.69,2.96-55.87-1.39-81.83-1.85-11.02-18.79-27.52-29.25-27.81-81.86-2.3-163.85-2.29-245.71.03-10.5.3-27.49,16.83-29.35,27.88-4.37,25.93-1.4,53.11-1.4,81.73Zm760.89.69c0-29.21,2.98-56.48-1.41-82.5-1.86-11.04-18.93-27.5-29.48-27.81-81.06-2.35-162.24-2.35-243.31-.15-11.16.3-29.58,15.47-31.32,25.97-4.48,27.06-1.5,55.36-1.5,84.49h307.02Z"/>
    </g>
</svg>