<?xml version="1.0" encoding="UTF-8"?><svg id="Ebene_2" xmlns="http://www.w3.org/2000/svg" viewBox="0 0 861.63 849.99"><defs><style>.cls-1{stroke-width:0px;}</style></defs><g id="Ebene_1-2"><path class="cls-1" d="m71.2,131.52c-14.53,0-27.35.17-40.16-.04-19.3-.32-28.55-10.31-28.65-30.55-.11-22.8,8.36-32.95,28.56-33.32,18.07-.33,36.15-.21,54.23.02,5.03.06,8.42-1.07,11.73-5.43,8.87-11.69,20.93-18.64,35.81-18.94,23.31-.46,46.63-.4,69.95-.27,4.55.03,9.09,1.37,14.53,2.26,0-3.77-.08-7.21.01-10.64.54-19.43,14.08-33.62,33.59-34.23,16.89-.52,33.83-.49,50.72,0,19.22.55,33.56,14.23,33.86,34.13.68,44.9.73,89.82-.01,134.72-.34,20.82-15.11,33.59-35.78,33.64-15.16.03-30.33-.24-45.48.07-17.18.35-28.91-7.11-35.24-23.1-.31-.78-.91-1.45-1.43-2.13-.16-.21-.5-.28.47.23-5.35,6.31-10.76,12.17-15.52,18.51-2.09,2.79-3.76,6.49-4.08,9.92-1.52,15.93-2.75,31.9-3.41,47.88-.11,2.58,2.55,6.4,4.99,7.79,25.02,14.22,50.93,23.57,80.62,16.5,16.65-3.96,33.8-5.8,50.67-8.87,2.56-.46,5.09-2.09,7.21-3.72,7.98-6.13,15.89-12.37,23.6-18.83,2.64-2.21,5.57-4.82,6.78-7.88,4.58-11.6,9.74-23.19,12.33-35.3,2.39-11.19,1.56-23.05,2.52-34.58,2.39-28.64,10.06-55.51,27.77-78.71,20.88-27.35,49.89-39.09,83.07-42.06,29.99-2.69,56.55,5.2,77.84,27.4,11.95,12.46,19.26,27.62,24.14,43.99,1.73,5.81,1.04,11.34-5.9,13.37-6.95,2.04-10.47-2.3-12.18-8.08-5.79-19.61-15.34-36.64-33.35-47.41-25.85-15.46-52.86-13.55-79.92-3.73-37.44,13.58-53.94,43.68-60.17,80.29-2.75,16.18-2.71,33.06-1.94,49.53.63,13.59,8.68,23.58,21.83,29.37,2.43-3.39,3.99-7.5,6.93-9.14,3.21-1.79,8.3-2.77,11.48-1.46,4.58,1.9,5.9,6.58,3.45,11.83-5.75,12.34-2.76,24.83,6.72,29.43,10.44,5.07,26.84-.15,32.5-10.79,6.18-11.62,15.09-19.76,27.58-24.03,15.71-5.38,22.55-17.34,24.26-33.05.66-6.08.77-12.29,2.19-18.19,7.51-31.09,31.46-40.21,62.75-29.93,27.3,8.97,37.61,39.22,23.49,64.33-.98,1.74-2.03,3.45-2.79,4.75,4.19,4.64,7.96,9.03,11.99,13.15,1.28,1.31,3.21,2.55,4.97,2.74,48.63,5.41,86.14,31.98,120.33,64.12,32.42,30.48,61.92,63.69,80.73,104.56,28,60.83,23.77,122.1-.27,183.09-4.88,12.37-4.41,13.47,8.58,13.6,7.96.08,11.93,3.5,11.88,11.56-.06,11.96-.08,23.91.01,35.87.06,7.59-3.73,11.27-11.12,11.58-1.46.06-2.92.02-4.37.03-24.98.16-25.1.08-39.03,20.38-1.77,2.57-2.2,6.49-2.21,9.78-.1,48.12-.03,96.23,0,144.35,0,2.04.01,4.08-.02,6.12-.11,6.72-2.97,11.91-10.1,11.59-7.23-.32-8.91-5.82-8.89-12.52.16-44.03.08-88.07.07-132.1,0-1.68-.17-3.36-.31-6.02-1.82,1.08-3.03,1.66-4.09,2.44-38.49,28.31-82.29,36.9-128.9,34.01-13.86-.86-27.85-2.8-41.34-6.05-38.86-9.37-69.52-28.38-77.74-71.66-2.37-.12-4.4-.03-6.36-.34-8.12-1.31-11.85,1.19-14.11,10.1-8.47,33.33-31.1,52.55-64.44,58.5-44.31,7.9-69.58,37.02-69.83,82.1-.05,9.33.04,18.66-.03,27.99-.09,11.14-2.84,13.92-14.01,13.92-58.6.03-117.2.01-175.81.01-14.87,0-29.74.08-44.61-.04-10-.08-13.05-3.23-12.75-13.13.55-18.42.1-36.63-6.46-54.26-7.77-20.87-21.88-35.44-42.23-44.04-24.69-10.44-33.38-23.35-33.43-50.29-.02-9.87,0-19.74,0-30.85-11.86,0-23.1.03-34.34,0-12.79-.04-15.1-2.39-15.14-15.41-.03-11.08-.06-22.16,0-33.24.07-12.26,1.87-14.06,14.4-14.07,88.63-.03,177.26-.02,265.89-.02,26.53,0,53.06-.11,79.59.11,5.21.04,8.15-.94,10.42-6.42,4.65-11.18,14.11-16.93,26.06-17.56,10.46-.55,21-.49,31.47.02,14.47.71,27.24,5.55,36.97,17.02,6.42,7.57,14.87,10.78,24.8,10.66,13.41-.17,26.82-.19,40.23.04,4.5.08,7.07-.96,9.34-5.43,9.97-19.67,26.2-29.79,48.44-29.82,16.62-.02,33.24-.02,49.86.03,21.92.07,37.45,10.49,48.14,29.28,1.49,2.62,5.29,5.57,8.04,5.59,40.81.35,81.63.24,122.45.21.79,0,1.58-.32,5.47-1.17-8.68-8.69-15.14-17.48-23.64-23.26-31.91-21.69-65.97-23.69-101.18-8.23-2.13.93-4.18,2.03-6.23,3.13-5.19,2.76-10.08,1-11.6-3.71-1.13-3.48.34-8.79,2.5-12.07,2.3-3.5,9.45-5.31,9.74-8.31.59-6.04-.81-13.04-3.65-18.46-4.25-8.12-9.65-15.97-15.94-22.63-23.69-25.09-42.09-53.04-47.22-87.77-2.59-17.53-3.66-35.4-3.86-53.14-.4-34.68.29-69.37.55-104.06.02-2.33.3-4.66.35-6.99.31-12.86-5.5-18.95-18.2-19.08-2.88-.03-5.77,0-10.3,0,1.07,10.54,2.31,20.48,3.06,30.45,1.69,22.61,3.95,45.22,4.43,67.87.42,19.88-6.8,38.11-16.05,55.6-2.28,4.31-3.54,9.81-3.34,14.69.87,21.54,3.12,43.03,3.59,64.57.72,33.06-24.73,61.57-57.77,62.66-30.47,1-61.5,1.93-91.46-2.56-36.8-5.51-62.71-39.81-63.78-77.34-.71-25.06-.26-50.15-1.01-75.2-.21-7.09-2.6-14.18-4.42-21.16-7.03-27.1-7.5-54.5-5.75-83.02-2.91,5.1-6.33,9.98-8.65,15.34-13.29,30.64-20.86,63.04-25.6,95.8-7.58,52.38-13.14,105.06-19.28,157.65-.87,7.48.18,15.17-.36,22.71-.28,3.92-1.34,8.19-3.37,11.48-3.65,5.9-11.82,4.82-14.72-1.52-.59-1.28-1.14-2.84-.96-4.18,3.57-26.46-14.59-40.41-32.14-53.77-18.27-13.91-38.47-25.3-56.7-39.26-43.35-33.22-75.78-75.47-98.95-124.81-2.91-6.2-5.77-8.39-13.02-7.15-24.22,4.16-48.27-15.32-49.59-40.05-3-55.97,7.98-109.4,30.28-160.64,1.12-2.57,2.16-5.18,3.83-9.2Zm-51.86,506.96c4.57,0,8.6,0,12.63,0,101.16,0,202.33-.01,303.49-.02,11.82,0,16.62,2.74,16.49,9.42-.13,6.68-5.03,9.46-16.75,9.47-84.84,0-169.68,0-254.51,0-3.71,0-7.43,0-12.13,0,0,11.88.31,22.89-.08,33.87-.5,14.39,5.93,23.68,19.17,28.95,37.2,14.83,56.39,43.34,61.48,82.19,1.23,9.4,1.66,18.9,2.45,28.28h208.51c0-7.94-.04-15.46,0-22.98.33-53.31,30.72-89.35,82.94-99.85,10.54-2.12,21.29-6.38,30.3-12.19,13.06-8.42,20.02-21.73,22.57-38.27-4.03,0-6.9,0-9.78,0-28.57,0-57.14.09-85.71-.04-20.71-.09-32.57-11.92-32.87-32.41-.05-3.42,0-6.84,0-10.77H19.34v24.35Zm805.69-65.64c28.16-67.68,19-145.92-18.62-192.54-3.04,1.51-6.2,2.95-9.25,4.61-35.78,19.41-64.84,46.15-87.1,80.23-3.71,5.67-8.18,10.02-14.94,5.43-6.67-4.53-4.4-10.39-.73-16.02,14.6-22.38,31.92-42.45,53.04-58.78,15.06-11.64,31.27-21.78,47.23-32.77-.32-.52-.82-1.55-1.52-2.43-23.04-29.17-48.56-55.85-78.99-77.44-21.95-15.57-45.32-28.06-73.6-30.81-.46,4.78-1.22,9.06-1.23,13.34-.1,32.93-.47,65.86.11,98.77.3,16.85,1.18,33.87,3.91,50.47,4.89,29.74,20.78,54.02,41.75,75.04,12.69,12.72,21.44,27.4,25,45.08.37,1.83,1.04,3.6,1.57,5.37,43.5-9.13,81.43-.43,113.36,32.42Zm-405.19-161.62c3.62-4.87,6.82-9.93,10.8-14.27,2.35-2.56,6.15-5.77,8.9-5.44,3.2.39,7.36,3.74,8.69,6.84,8.56,19.92,23.19,34.01,41.57,44.51,2.56,1.46,7.34,1.62,9.84.19,23.31-13.27,43.46-30.35,59.12-52.26,18.46-25.81,26.98-54.19,23.07-86.32-3.93-32.35-6.62-64.86-9.56-97.33-1.22-13.49-1.65-27.06-2.44-40.59-1-.37-2.01-.74-3.01-1.1-2.77,5.32-6.25,10.42-8.11,16.04-1.61,4.86-1.38,10.34-1.96,15.54-2.43,21.69-11.4,39.27-32.54,47.85-10.52,4.27-18.06,10.34-23.68,20.43-8.83,15.88-24.55,20.01-41.29,19-16.35-.99-27.4-10.2-32.88-25.86-.71-2.01-1.83-4.39-3.49-5.47-10.48-6.85-21.16-13.39-31.53-19.88-20.4,47.98-17.28,135.72,28.49,178.1Zm378.46,246.89c-2.15-.37-3.18-.71-4.21-.71-32.93-.03-65.87-.07-98.8.05-2.11,0-4.2,1.36-6.34,1.92-3.66.96-8.72,3.69-10.7,2.25-3.09-2.25-5.45-7.27-5.71-11.28-.75-11.32-.1-22.72-.31-34.09-.37-19.25-14.54-33.68-33.71-34.02-17.48-.31-34.98-.34-52.46,0-18.81.37-32.45,13.63-33.2,32.37-.51,12.51-.17,25.06-.1,37.6.07,12.9,4.54,24.44,14.32,32.55,9.28,7.71,19.26,15.68,30.32,19.95,46.72,18.06,93.98,16.67,140.61-.71,24.1-8.99,43.9-24.41,60.3-45.88Zm-469.6-368.37c-7.05.96-12.17,1.66-17.29,2.36-44.2,6.01-51,10.32-69.56,44.63-17.27,31.91-25.07,66.45-30.41,102.1-2.45,16.35,2.89,24.86,15.63,33.2,20.6,13.49,40.14,28.58,60.17,42.96.29.21,1.01-.19,1.56-.31,4.36-76,16.55-150.63,39.9-224.93Zm-148.97-86.88c-11.02,0-20.58.1-30.14-.02-15.81-.2-28.38-11.22-30.22-27-.72-6.14-.12-12.44-.12-17.02-10.86-4.34-21.71-8.67-34.05-13.6-5.42,15.84-12,33.1-17.23,50.76-9.55,32.31-13.34,65.51-12.48,99.15.54,21.09,14.97,31.72,35.31,26.43,21.33-5.55,41.07-14.56,58.1-28.84,14.48-12.14,25.31-26.91,28.01-45.9,2-14.06,1.9-28.42,2.82-43.96Zm56.31-101.48c0,21.58-.11,43.16.04,64.74.09,12.92,5.14,17.76,18.18,17.84,14.58.09,29.16.08,43.73,0,13.18-.08,18.77-5.36,18.81-18.45.14-42.58.15-85.16,0-127.73-.04-12.73-6.2-18.54-19-18.62-13.7-.09-27.41-.03-41.11,0-15.84.04-20.61,4.85-20.65,20.98-.06,20.41-.01,40.83-.02,61.24Zm201.77,318.28c-2.64,2.21-4.57,3.94-6.62,5.52-12.13,9.34-17,8.99-27.44-2.36-4.58-4.98-8.77-10.31-13.02-15.34,0,15.54-1.15,30.72.25,45.66,2.61,27.85,24.61,53.13,51.31,55.36,29.17,2.44,58.74,1.83,88.04.41,18.06-.88,34.77-19.44,35.05-36.99.28-17.62-1.62-35.28-2.67-54.68-3.33,3.11-5.03,5-7.02,6.52-16.85,12.82-33.68,25.66-50.67,38.3-5.93,4.41-12.05,3.91-18.79.63-19.93-9.69-35.21-24.45-48.42-43.02Zm-250.09-140.75c-10.74,10.96-20.64,23.43-32.87,32.89-12.23,9.45-26.78,15.88-40.84,23.94,17.83,40.83,44.87,75.28,78.18,107.14,5.62-53.5,19.48-101.76,50.69-142.37-19.28-7.55-37.84-14.82-55.16-21.6Zm-28.93-141.38c13.7,0,27.39.19,41.09-.06,11.73-.22,17.04-5.57,17.24-17.3.23-13.4.2-26.82.01-40.22-.17-12.42-5.87-18.23-18.25-18.35-20.4-.19-40.79-.09-61.19-.02-13.06.04-23.47,5.61-29.25,17.22-4.61,9.27-8.11,19.25-10.81,29.26-4.76,17.65,4.32,29.09,22.7,29.43,12.82.23,25.64.04,38.46.04Zm374.67,479.89c-13.94,0-27-.27-40.04.07-17.28.45-31.33-5.45-43.8-17.72-5.31-5.22-13.81-8.51-21.35-9.81-9.61-1.66-19.71-.45-29.61-.4-7.71.04-11.98,3.93-12.2,11.69-.2,7.27-.14,14.55-.06,21.82.13,12.02,3.56,15.39,15.72,15.4,41.02.03,82.04.02,123.07,0,2.76,0,5.51-.28,8.27-.44v-20.62Zm308.84.57h-150.3v20.09h150.3v-20.09ZM199.44,156.24c-16.07,0-32.24,0-48.4,0-9.31,0-13.11,4.11-13.49,14.55-.27,7.38,4.96,12.84,13.08,13.1,8.4.26,16.82.11,25.23.1,18-.03,25-7.95,23.58-27.74Zm-116.07-69.8c-19.01,0-36.95-.28-54.87.33-2.43.08-5.75,4.26-6.78,7.2-1.18,3.37-1.18,7.79,0,11.16,1.02,2.92,4.33,7.06,6.76,7.15,16.15.64,32.34.33,48.36.33,2.2-8.8,4.16-16.64,6.54-26.17Zm505.56,78.61c.81,16.06,1.61,32.08,2.43,48.33,16.7-3.49,23.63-12.78,21.82-27.5-1.5-12.19-11.53-21.14-24.25-20.83Z"/><path class="cls-1" d="m488.91,202.89c-6.28-.24-9.65-3.51-9.47-9.83.19-6.57,8.01-11.17,18.33-10.66,6.11.3,9.68,3.88,9.64,10.05-.04,6.51-7.71,10.66-18.5,10.45Z"/><path class="cls-1" d="m452.09,194.2c-.4,5.58-3.64,8.73-10.03,8.65-11.21-.13-18.24-4.18-17.99-10.84.24-6.2,3.92-9.55,10.07-9.59,11.03-.08,17.82,4.26,17.94,11.78Z"/></g></svg>