<?xml version="1.0" encoding="UTF-8"?>
<svg id="Ebene_2" xmlns="http://www.w3.org/2000/svg" viewBox="0 0 1006.04 1096.06">
    <defs>
        <style>.cls-1{stroke-width:0px;}</style>
    </defs>
    <g id="Ebene_1-2">
        <path class="cls-1"
              d="m537.33,1096.06c-15.68-9.17-19.59-23.2-19.09-40.6.92-32.44.29-64.92.25-97.38-.01-10.95,3.19-20.28,12.59-26.78,17.61-12.17,41.68-1.28,42.66,20.17,1.06,23.14.44,46.36.52,69.54.04,12.84-.73,25.74.19,38.52,1.21,16.87-4.8,29.02-20,36.54h-17.13Z"/>
        <path class="cls-1"
              d="m293.2,550c.08-132.34,93.85-245.71,224.36-270.66,40.81-7.8,81.49-6.5,121.8,4.39,5.53,1.49,12.06,2.14,17.48.72,79.5-20.84,154.45-9.87,223.14,34.73,67.6,43.9,108.84,106.46,122.03,186.44,13.26,80.44-6.26,152.99-56.69,216.46-44.09,55.48-102.02,88.67-172.31,100.06-39.37,6.38-77.85,3.04-116.55-5.96-10.79-2.51-23.47,1.95-35.07,4.3-130.32,26.43-264.91-48.59-310.74-173.34-11.53-31.38-17.93-63.63-17.45-97.14Zm268.01,218.71c-68.43-56.95-106.02-129.41-106.14-218.17-.12-89.17,37.5-161.99,106.31-219.14-80.86,4.19-143.65,39.82-183.33,109.93-43.3,76.48-40.79,154.57,6.63,228.52,40.63,63.36,100.88,95.55,176.53,98.87Z"/>
        <path class="cls-1"
              d="m155.51,156c3.48,1.86,11.42,4.13,16.63,9.2,32.71,31.86,64.92,64.23,97.05,96.68,11.42,11.54,11.65,28.68,1.36,39.49-10.64,11.18-28.28,11.66-40.2-.05-32.82-32.26-65.31-64.86-97.71-97.54-8.87-8.95-10.88-20.01-5.92-31.6,4.49-10.5,13.2-15.46,28.78-16.18Z"/>
        <path class="cls-1"
              d="m301.67,814.38c-3.34,6.41-5.4,14.06-10.23,19.02-32.14,32.95-64.75,65.44-97.47,97.81-11.43,11.31-28.77,11.42-39.53,1.11-10.7-10.25-11.49-27.96-.28-39.38,32.75-33.35,65.92-66.29,99.18-99.12,9.08-8.96,20.3-9.88,31.62-4.57,9.97,4.67,14.58,13.18,16.71,25.13Z"/>
        <path class="cls-1"
              d="m90.9,522.39c19.62,0,39.25-.11,58.87.03,16.55.12,29.51,12.13,29.8,27.28.3,15.52-12.87,28.11-30,28.17-39.96.13-79.92.14-119.88,0-16.67-.06-29.44-12.06-29.68-27.3-.24-15.73,12.68-28.03,29.88-28.15,20.34-.14,40.67-.03,61.01-.03Z"/>
        <path class="cls-1"
              d="m540.83,85.08c0-17.82-.17-35.64.05-53.45.24-19.1,11.08-31.46,27.29-31.63,16.54-.18,28.35,12.66,28.47,31.85.23,35.63.22,71.27-.02,106.9-.11,15.91-8.94,27.68-21.78,30.38-12.94,2.72-25.41-2.87-30.95-15.1-2.25-4.96-2.82-10.99-2.93-16.56-.36-17.45-.13-34.92-.13-52.38Z"/>
    </g>
</svg>