<svg width="14" height="24" viewBox="0 0 14 24" fill="none" xmlns="http://www.w3.org/2000/svg">
<path d="M14 7V1C14 0.734784 13.8946 0.480444 13.7071 0.292908C13.5196 0.105371 13.2652 0 13 0H1C0.734785 0 0.480445 0.105371 0.292909 0.292908C0.105373 0.480444 1.31887e-06 0.734784 1.31887e-06 1V7C-0.000237263 7.14691 0.0318965 7.29209 0.0941175 7.42517C0.156339 7.55825 0.247104 7.676 0.359987 7.77002L5.44 12L0.359987 16.23C0.247104 16.324 0.156339 16.4417 0.0941175 16.5748C0.0318965 16.7079 -0.000237263 16.8531 1.31887e-06 17V23C1.31887e-06 23.2652 0.105373 23.5196 0.292909 23.7071C0.480445 23.8946 0.734785 24 1 24H13C13.2652 24 13.5196 23.8946 13.7071 23.7071C13.8946 23.5196 14 23.2652 14 23V17C14.0002 16.8531 13.9681 16.7079 13.9059 16.5748C13.8437 16.4417 13.7529 16.324 13.64 16.23L8.56 12L13.64 7.77002C13.7529 7.676 13.8437 7.55825 13.9059 7.42517C13.9681 7.29209 14.0002 7.14691 14 7ZM12 17.47V22H2V17.47L7 13.3L12 17.47ZM12 6.53003L7 10.7L2 6.53003V2H12V6.53003Z" fill="white"/>
<path d="M10 18H4V20H10V18Z" fill="white"/>
</svg>
