<?xml version="1.0" encoding="UTF-8"?>
<svg id="Ebene_2" xmlns="http://www.w3.org/2000/svg" viewBox="0 0 1682.93 1433.01">
    <defs>
        <style>.cls-1{stroke-width:0px;}</style>
    </defs>
    <g id="Ebene_1-2">
        <path class="cls-1"
              d="m1682.93,854.44c-2.12,2.93-4.45,5.74-6.34,8.82-15.19,24.74-39.26,33.61-66.14,23.52-21.98-8.25-44.13-16.28-65.39-26.15-45.69-21.21-93.02-26.04-142.31-17.98-10.74,1.76-21.83,1.92-32.75,1.88-14.13-.05-24.4-9.72-25.32-22.71-.92-12.93,8.37-24.43,21.93-26.28,70.71-9.62,140.46-12.05,206.57,22.67,17.13,8.99,36.3,14.09,57.82,22.22-40.47-91.41-80.65-177.68-187.77-201.1-13.26-2.9-26.99-5-40.52-5.14-59.69-.62-119.44,1.06-179.08-.85-63.97-2.05-120.65,17.4-172.52,52.64-25.61,17.4-49.59,37.18-74.3,55.89.61,1.41,1.23,2.83,1.84,4.24,11.5-1.03,22.97-2.64,34.49-2.99,63.22-1.9,121.54,17.59,179.13,40.88,53.78,21.75,103.51,49.36,144.16,91.75,61.74,64.37,91.2,142.2,100.11,229.88,7.9,77.75,18.64,155.21,28.03,232.81,1.51,12.47,4.25,25.11,3.46,37.49-2.66,41.89-51.47,69.89-88.63,50.12-104.23-55.48-208.83-110.35-311.54-168.53-72.81-41.24-122.98-104.16-153.92-182.06-23.56-59.31-47-118.66-72.22-182.33-3.41,7.96-5.45,12.43-7.26,16.99-21.76,54.8-43.47,109.62-65.24,164.42-33.62,84.65-90.24,149.21-170.24,192.69-96.03,52.19-192.49,103.58-288.6,155.62-23.75,12.86-47.22,14.7-69.49-1.39-21.94-15.86-28.22-37.84-24.69-65.01,12.17-93.78,22.13-187.84,34.37-281.61,10.78-82.6,47.17-152.85,107.43-210.55,3.89-3.73,7.9-7.34,14.98-13.91-24.66-2.14-45.97-4.09-67.3-5.83-23.99-1.96-48.15-6.29-71.96-4.9-25.18,1.47-50.69,6.32-74.87,13.62-29.17,8.81-56.85,22.4-85.62,32.7-27.12,9.71-46.89,5.19-61.23-12.63-16.08-19.98-14.88-40.87-3.11-62.69,12.7-23.55,24.52-47.58,36.58-71.47,52.79-104.55,138.52-155.45,254.84-156.24,46.55-.32,93.11-.05,139.66-.05,5.94,0,11.89,0,20.79,0-4.29-5.3-6.54-8.65-9.35-11.46-23.25-23.22-46.21-46.76-70.22-69.18-5.65-5.27-14.88-9.28-22.54-9.41-48.73-.84-97.48-.75-146.23-.3-25.37.23-46.6-6.97-59.64-30.01-12.83-22.68-10.18-44.5,3.66-66.45,17.49-27.74,33.86-56.2,50.02-84.75,7.26-12.82,17.24-17.95,31.77-19.05,74.73-5.67,149.45-11.66,224.09-18.51,60.33-5.54,117.95.48,170.3,34.03,1.73,1.11,3.88,1.55,8.06,3.17,0-27.92.32-54.44-.39-80.93-.09-3.47-4.89-7.75-8.52-10.02-24.25-15.14-36.89-36.46-36.69-65.31.19-27.93-.17-55.87.1-83.8.38-38.53,30.33-69.72,67.64-70.88,39.54-1.24,71.96,26.51,73.83,65.7,1.54,32.22.83,64.6.02,96.88-.65,25.63-13.75,44.98-36,56.77-9.07,4.81-10.62,10.31-10.53,19.15.35,34.5-.38,69.02.57,103.5.19,7.05,4.19,15.78,9.35,20.64,37.44,35.26,75.62,69.73,115.83,106.52,0-20.84-.58-40.64.17-60.38.66-17.31-.04-31.15-18.65-41.8-20.1-11.5-26.84-33.84-27.24-56.8-.47-27.38-.69-54.78.01-82.15,1.08-42.2,32.97-73.95,72.66-73.36,39.83.59,70.29,32.96,70.63,75.37.21,25.74.06,51.48.04,77.22-.03,29.71-11.88,52.67-37.89,68.15-3.88,2.31-8.22,7.75-8.33,11.86-.75,26.71-.38,53.46-.38,82.38,27.17-25.14,50.52-51.52,78.47-71.45,38.65-27.57,56-61.16,47.6-108.12-1.62-9.02-.76-18.62-.13-27.88,1.48-21.54.74-39.91-22.69-52.74-16.41-8.98-23.31-28.45-23.43-48.24-.19-31.22-.61-62.44.04-93.65C947.58,29.83,979.19.05,1017.36.02c38.28-.03,69.73,29.41,70.69,67.39.78,30.65.37,61.33.13,92-.2,26.35-12.53,46.45-34.95,59.21-9.16,5.21-11.42,10.69-11.36,20.4.4,64.63-.35,129.26.36,193.88.73,66.31-16.48,127.41-49.97,184.28-17.1,29.04-34.13,58.11-49.14,89.08,15.42-12.46,30.67-25.12,46.28-37.35,43.34-33.95,89.08-63.39,143.78-75.98,4.48-1.03,9.17-3.86,12.41-7.17,80.82-82.58,161.46-165.34,240.97-246.87-19.43-1.96-43.93-4.8-68.49-6.84-39.81-3.31-79.62-6.78-119.5-8.8-19.55-.99-39.29.66-58.89,1.97-19.08,1.28-29.84-4.7-32.4-19.53-2.72-15.73,5.94-28.74,24.89-29.26,43.02-1.18,86.21-1.24,129.16,1.24,61.15,3.54,122.12,10.15,183.23,14.57,14.64,1.06,24.51,6.32,31.77,19.04,17.08,29.91,35.22,59.22,52.29,89.14,25.29,44.3-2.02,91.49-53.23,91.89-50.38.39-100.78-.3-151.16.52-7.65.12-16.99,4.04-22.52,9.36-26.34,25.31-51.64,51.7-79.31,79.74,7.54.38,13.19.86,18.84.91,57.49.59,115.14-1.44,172.43,2.23,94.23,6.04,165.31,52.78,212.69,133.99,20.62,35.33,37.82,72.65,56.57,109.07v26.29Zm-940.58-45.86c-37.25-15.59-77.99-17.21-119.07-11.9-58.78,7.61-112.92,30.07-164.71,57.4-81.52,43.02-133.59,110.39-152.76,200.65-9.17,43.16-12.89,87.5-18.41,131.39-7.44,59.12-14.6,118.27-21.13,177.5-2.17,19.71,4.13,23.52,21.44,14.22,97.75-52.53,195.66-104.77,292.99-158.09,63.08-34.56,108.85-85.79,136.8-152.08,19.51-46.27,37.32-93.26,55.87-139.93,9.62-24.21,19.21-48.43,29.65-74.74-9.24,1.2-16.23,1.77-23.08,3.06-63.67,11.99-122.45,35.68-175.62,73.08-14.23,10.01-28.96,7.65-37.42-4.58-8.59-12.41-5.55-26.33,9.47-36.47,16.29-11,32.53-22.66,50.29-30.76,38.08-17.38,77.13-32.65,115.7-48.74Zm194.05,1.7c5.88,2.17,9.31,3.78,12.92,4.71,73.76,19.15,139.45,53.54,196.59,104.06,35.97,31.8,65.6,68.83,90.25,109.95,6.22,10.37,8.56,21.97-.63,30.03-6.41,5.62-17.91,9.69-25.83,8.06-7.47-1.53-14.89-10.39-19.47-17.79-53.71-86.94-129.88-145.33-226.14-177.58-26.44-8.86-54.19-13.82-84.49-21.35,2.64,8,3.5,11.09,4.67,14.05,25.69,64.96,51.14,130.02,77.2,194.83,29.52,73.44,79.85,128.38,149.46,165.83,65.43,35.2,130.83,70.48,196.26,105.68,29.34,15.79,58.59,31.76,88.18,47.08,15.87,8.21,22.62,3.72,21.43-13.87-.92-13.61-2.96-27.16-4.62-40.71-9.35-76.47-19.24-152.89-27.98-229.43-10.21-89.41-49.14-162.76-121.93-216.05-54.05-39.57-116.85-61.77-180.85-78.28-47.55-12.26-96.04-7.58-145.01,10.8Zm-231.87-67.09c-19.27-15.93-38.17-32.36-57.9-47.71-51.7-40.23-110.26-61.47-176.04-61.59-62.4-.12-124.81-.82-187.2.25-69.41,1.19-126.49,29.98-167.17,85.85-20.39,28.01-34.44,60.66-51.23,91.28-4.5,8.21-8.53,16.69-12.78,25.04,1.03,1.06,2.06,2.12,3.09,3.17,25.26-9.79,50.44-19.78,75.8-29.32,32.72-12.31,65.19-24.91,101.54-21.5,51.72,4.86,103.52,9.01,155.36,12.23,21.94,1.37,46.62,5.91,65.67-1.81,80.36-32.57,159.55-66.97,250.85-55.89Zm-415.19-404.3c2.71,3.32,3.83,4.97,5.23,6.36,80.77,80.19,161.51,160.4,242.49,240.38,4.05,4,9.82,7.24,15.35,8.62,54.14,13.57,101.16,40.21,143.21,76.4,14.6,12.57,29.7,24.55,44.58,36.8-.29-6.16-2.59-10.33-5-14.44-12.17-20.73-23.42-42.06-36.72-62.04-47.8-71.85-61.16-152.05-58.05-236.16.5-13.57-3.18-22.42-13.86-30.47-35.55-26.77-74.81-43.32-119.68-42.28-32.2.75-64.36,4-96.5,6.54-39.58,3.13-79.12,6.7-121.04,10.28Zm401.75,81.43c-.47,8.52-.82,11.54-.78,14.56.7,55.11,13.89,106.81,42.05,154.48,24.99,42.3,49.8,84.72,74.72,127.06,1.76,2.99,3.77,5.83,5.67,8.75,3.02-37.78,3.26-74.69,2.95-111.6-.32-39.55-11.85-76.38-37.35-106.04-25.73-29.93-55.8-56.12-87.26-87.22Zm301.72,1.41c-44.48,42.41-94.37,74.36-114.68,132.37-19.61,56.02-8.03,113.42-9.23,170.48,32.12-51.15,63.02-102.04,91.41-154.3,24.16-44.48,32.69-93.32,32.5-148.54Zm374.95,19.56c36.88,0,74.29.25,111.68-.53,2.65-.06,8.36-9.4,7.23-11.48-12.66-23.35-26.38-46.12-39.95-69.26-26.96,27.74-52.59,54.13-78.96,81.27Zm-1052.87.13c-26.35-27.24-51.9-53.65-78.78-81.44-13.42,22.87-26.77,45.16-39.62,67.72-5.31,9.31.14,13.54,8.9,13.6,36.51.27,73.03.11,109.51.11ZM687.33,115.3c0-14.22.03-28.44,0-42.67-.04-13.91-7.85-22.06-20.9-22.46-12.55-.39-20.95,8.15-21.33,20.5-.89,28.96-.97,57.99-.03,86.94.42,13,8.44,21.37,22.65,20.41,13.16-.89,19.37-8.91,19.55-21.7.2-13.67.04-27.35.06-41.02Zm351.5-.73c0-13.68.31-27.37-.09-41.04-.41-14.11-10.05-24.82-21.85-23.55-13.16,1.42-20.71,9.49-20.82,23.04-.23,27.36-.37,54.73.04,82.08.23,15.06,8.69,23.57,21.88,23,14.13-.62,20.39-9.22,20.74-22.49.36-13.67.08-27.36.09-41.04Zm-217.67,153.3c0,14.74-.1,29.49.03,44.23.12,13.12,7.25,20.73,19.98,21.2,12.81.48,21.12-6.88,21.4-19.77.62-29.46.63-58.96-.03-88.41-.29-12.94-8.77-20.14-21.55-19.57-12.75.57-19.71,8.3-19.8,21.38-.1,13.65-.02,27.3-.02,40.95Z"/>
        <path class="cls-1"
              d="m501.35,964.67c22.75.28,34.72,21.03,24.31,37.69-12.1,19.36-25.33,38.05-38.73,56.55-7.9,10.9-22.98,13.42-33.41,6.21-11.39-7.88-15.63-19.64-8.58-31.32,12.62-20.92,26.8-40.97,41.45-60.54,3.74-4.99,11.7-6.81,14.96-8.58Z"/>
    </g>
</svg>