<?xml version="1.0" encoding="UTF-8"?>
<svg id="Ebene_2" xmlns="http://www.w3.org/2000/svg" viewBox="0 0 1029.48 648.09">
    <defs>
        <style>.cls-1{stroke-width:0px;}</style>
    </defs>
    <g id="Ebene_1-2">
        <path class="cls-1"
              d="m389.3,186.39c-39.88-33.24-76.48-64.52-113.96-94.71-21.87-17.62-45.08-33.59-67.79-50.16-8.63-6.3-15.2-13.32-11.66-25.13,3.4-11.36,11.79-15.13,22.87-15.81,73.42-4.55,139.15,18.67,200.65,56.17,19.81,12.08,38.28,26.36,58.75,40.6,6.36-6.52,13.14-13.79,20.26-20.71,11.82-11.48,22.07-11.8,33.64-.61,13.87,13.41,27.52,27.07,40.87,40.99,10.21,10.65,10.09,21.11-.29,31.82-7.2,7.43-15.16,14.13-21.58,20.05,17.48,26.54,34.99,50.15,49.37,75.53,32.41,57.2,51.41,118.26,47.26,185.07-.69,11.13-4.36,19.6-15.62,22.99-11.69,3.53-19-3.01-25.22-11.67-6.32-8.8-12.66-17.6-19.04-26.35-.43-.59-1.31-.86-1.61-1.05-16.81,2.29-23.22,11.6-23.81,28.4-.69,19.57-3.82,39.16-7.41,58.46-1.44,7.77-5.75,15.73-10.81,21.94-9.61,11.81-20.7,22.42-32.51,34.94h465.08c-4.62-9.61-8.34-18.8-13.26-27.3-26.93-46.55-54.41-92.79-81-139.53-3.89-6.83-6.01-15.91-5.54-23.74,1.75-29.24,4.6-58.44,7.79-87.57.8-7.3-1.35-9.91-7.91-11.75-15.03-4.22-30.32-8.07-44.62-14.15-8.24-3.5-16.75-9.72-21.66-17.04-14.9-22.25-28.11-45.64-42.56-69.54-30.37,26.89-59.76,52.94-89.18,78.95-3.91,3.46-7.69,7.16-11.98,10.08-8.83,6-20.53,4.38-27.32-3.32-6.47-7.33-6.75-18.52-.46-26.64,1.71-2.2,3.88-4.07,5.98-5.93,36.11-31.98,72.17-64.01,108.38-95.88,17.98-15.83,29.17-14.01,41.55,6.36,15.43,25.39,30.57,50.95,46.42,76.08,2.67,4.24,7.78,7.97,12.56,9.65,18.89,6.64,38.12,12.29,57.17,18.48,15.03,4.89,19.61,12.49,18.02,28.06-3.43,33.55-6.86,67.1-9.7,100.71-.39,4.68,1.71,10.14,4.14,14.39,19.57,34.13,40.18,67.67,59.09,102.15,15.39,28.07,29.37,56.96,43.02,85.93,9.63,20.44.57,34.38-21.86,34.4-179.29.14-358.58.07-537.86.09-10.3,0-19.07-2.47-23.64-12.96-4.66-10.7.23-18.41,7.36-25.79,18.69-19.39,37.61-38.59,55.56-58.66,4.9-5.48,8.41-13.47,9.6-20.78,4.05-24.94,5.94-50.24,10.55-75.06,1.32-7.09,8.16-14.05,14.13-19.13,5.26-4.48,12.83-6.26,22.07-10.45-33.05-38.96-65.34-77.03-101.18-119.28-3.84,6.27-5.67,11.09-9,14.43-118.66,119.01-237.44,237.91-356.26,356.76-23.02,23.02-54.65,25.21-76.68,5.6-23.17-20.63-24.81-54.93-3.27-77.31,15.33-15.93,31.19-31.35,46.83-46.98,104.36-104.3,208.72-208.6,313.15-312.83,3.39-3.38,7.51-6.03,14.13-11.26Zm211.94,175.65c-26.95-143.79-189.45-295.4-313.37-314.01,118.56,90.34,221.9,193.74,313.37,314.01Zm-184.25-147.03c-2.74,2.56-4.84,4.39-6.81,6.36-119.98,119.82-239.95,239.64-359.9,359.49-2.26,2.26-5.8,4.63-6.06,7.21-.5,5-.73,11.62,2.07,14.86,2.25,2.6,9.32,2.15,13.88,1.22,3.05-.62,5.58-4.33,8.12-6.87,119.21-119.45,238.41-238.91,357.58-358.4,2.43-2.43,4.58-5.14,7.08-7.97-5.42-5.39-10.25-10.19-15.96-15.89Zm105.26-74.38c3.1-3.64,5.05-5.94,6.6-7.76-4.47-5-8.42-9.42-13.07-14.62-2.72,3.24-4.8,5.72-5.88,7.01,4.34,5.4,7.8,9.72,12.35,15.38Z"/>
    </g>
</svg>