<?xml version="1.0" encoding="UTF-8"?>
<svg id="Ebene_2" xmlns="http://www.w3.org/2000/svg" viewBox="0 0 1145.44 1898.59">
    <defs>
        <style>.cls-1{stroke-width:0px;}</style>
    </defs>
    <g id="Ebene_1-2">
        <path class="cls-1"
              d="m1145.44,151.83c-3.43,3.63-5.87,5.52-10.03,1-2.3-2.5-6.95-2.87-10.56-4.13-10.51-3.65-20.91-7.68-31.58-10.79-14.12-4.11-28.46-7.47-42.69-11.18-6.35-1.66-12.62-3.74-19.04-5.01-15.44-3.07-30.97-5.67-46.42-8.66-10.69-2.07-21.27-4.67-31.97-6.68-7.8-1.47-15.68-2.94-23.58-3.42-17.95-1.08-36.03-.69-53.9-2.46-23.68-2.35-47.25-.64-70.86-.12-14.45.32-28.91,1.01-43.3,2.22-12.4,1.04-24.73,2.97-37.07,4.63-10.68,1.44-21.34,3.01-31.99,4.62-1.6.24-3.16.89-4.66,1.53-1.37.58-2.56,1.78-3.96,2.06-7.93,1.6-15.97,2.73-23.85,4.57-9.36,2.18-18.55,5.08-27.89,7.32-3.81.91-7.57.86-11.57,2.38-12.88,4.9-26.54,7.75-39.48,12.54-16.8,6.22-34.18,11.28-49.11,21.84-1.89,1.33-4.84,1.04-7.1,1.99-12.53,5.27-25,10.65-37.47,16.07-12.53,5.44-22.28,14.88-33,22.96-11.17,8.42-20.36,18.72-29.66,28.98-3.11,3.44-6.56,6.57-9.84,9.85-7.86,7.85-16.24,15.26-23.42,23.69-7.87,9.25-14.65,19.44-21.86,29.25-4.08,5.56-8.23,11.08-12.06,16.81-6.16,9.2-12.82,18.18-17.91,27.96-6.76,12.97-12.3,26.59-18.23,40-4.64,10.49-9.17,21.03-13.51,31.65-1.34,3.29-2.24,6.87-2.72,10.4-1.58,11.5-2.3,23.13-6.56,34.15-.92,2.39-.27,5.33-.74,7.95-3.4,18.92-3.95,37.99-2.87,57.1.37,6.59,1.73,13.18,3.27,19.62,4.39,18.38,8.31,36.94,13.95,54.94,4.33,13.8,10.32,27.2,16.82,40.15,6,11.96,13.21,23.37,20.68,34.5,9.49,14.14,18.83,28.57,29.98,41.35,12.96,14.86,27.59,28.3,41.92,41.91,7.58,7.21,15.92,13.64,24.17,20.1,4.13,3.24,8.81,5.77,13.26,8.6,10.68,6.81,20.86,14.72,32.25,20.01,7.42,3.45,16.57,3.53,25.02,4.35,10.63,1.03,21.47.46,31.92,2.3,3.38.59,5.85,6.57,8.64,10.15.42.54.08,1.69.52,2.18,10.5,11.8,4.94,25.65,4.23,38.49-.9,16.08-4.11,32.01-5.84,48.06-1.16,10.68-1.26,21.47-2.26,32.18-.73,7.87-2.01,15.7-3.3,23.51-1.35,8.17,1.88,14.1,8.92,17.48,4.09,1.96,7.99,4.68,11.3,7.78,2.4,2.24,4.34,5.46,5.33,8.6,1.9,6.03,7.5,10.11,6.96,17.64-1.39,19.27-1.71,38.63-2.28,57.95-.35,11.8-.14,23.61-.63,35.4-.66,15.89-2.04,31.75-2.58,47.64-.34,10.12,1.05,20.33.26,30.39-.94,11.97,2.09,23.83-.54,35.92-1.41,6.49.63,13.71.88,20.61.08,2.17-.65,4.36-.93,6.55-.16,1.23-.3,2.49-.16,3.71.09.87,1.15,1.86.93,2.5-3.06,9.08-.11,18.11-.07,27.15.04,8.25-1.64,16.5-1.86,24.77-.21,7.65.78,15.34.73,23-.05,7.59-.85,15.17-1.12,22.76-.17,4.92.13,9.85.03,14.77-.17,7.93-.65,15.85-.71,23.78-.04,4.59.76,9.2.68,13.78-.11,5.88.26,12.04-1.37,17.55-2.15,7.29-.63,13.95.05,21.05.65,6.82-1.18,13.85-1.79,20.81-.25,2.84-1.11,6.11-.09,8.5,4,9.35.12,18.41-.22,27.58-.1,2.59-.18,5.19-.16,7.79.05,10.18.05,20.35.25,30.53.14,6.88.84,13.76.81,20.64-.03,5.54-.65,11.09-1.25,16.6-.5,4.63-2.7,8.74,1.03,13.77,2.1,2.83,1.71,9.13.07,12.8-3.44,7.71-.8,14.9-.43,22.37.31,6.34-.37,12.72-.57,19.09-.07,2.2-.2,4.43.03,6.61.74,7.01,5.81,13.73.63,21.25-.86,1.25,2,5.07,3.14,7.71,2.04-.91,4.25-1.57,6.08-2.79,3.27-2.17,6.4-4.57,9.44-7.05,3.88-3.17,7.79-6.35,11.37-9.85,4.72-4.6,9.22-9.44,13.66-14.32,5.74-6.31,12.42-12.13,16.62-19.37,3.11-5.36,3.59-12.61,3.97-19.09.35-6-.76-12.13-1.64-18.14-.98-6.71-1.14-12.69,3.13-18.96,3.83-5.62,4.58-13.29,8.21-19.1,6.45-10.34,6.28-21.51,6.2-32.82-.07-10.23-.19-10.23,10.25-13.54,5.67-1.8,6.02-5.66,3.03-10.72-4.15-7.03-10.96-10.19-17.05-14.57-1.59-1.15-2.59-3.14-3.83-4.77-4.92-6.45-10.22-12.67-14.62-19.47-2.88-4.46-5.38-9.58-6.42-14.73-1.85-9.18-2.63-18.59-3.51-27.94-.28-2.93.16-6.07.94-8.93,1.23-4.49,3.68-8.62,8.91-8.64,4.89-.01,9.8,1.04,14.68,1.76,2.57.38,5.11,1.02,7.33,2.06,3.35,1.38,6.61,3.52,10.08,3.96,4.36.54,8.45-9.05,5.62-13.72-3.01-4.96-7.24-9.17-10.32-14.1-2.87-4.6-4.9-9.73-7.37-14.59-.7-1.37-1.59-2.66-2.5-3.92-1.93-2.68-4.6-5.04-5.78-8.01-5.84-14.67-5.42-30.06-2.84-45.14.97-5.67,4.62-10.93,9.57-15.68,7.61-7.32,13.99-3.22,21.52-1.93,7.85,1.34,15.17,4.24,20.69,9.05,3.7,3.22,6.18,2.27,8.86,1.14,2.27-.95,4.94-3.41,5.42-5.63.86-4.03.53-8.41.16-12.59-1.37-15.32-3.7-30.6-4.26-45.94-.59-16.23.37-32.51.85-48.77.07-2.33.94-4.81,2.03-6.92,5.17-9.99,10.14-20.12,15.97-29.72,5.46-9,14.99-10.79,24.55-10.57,4.58.11,9.14,2.28,13.66,3.68.69.21,1.24,1.27,1.6,2.05,2.24,4.87,4.4,9.78,6.59,14.67,2.01,4.49,4.56,5.07,8.78,2.27,8.82-5.85,14.24-13.92,18.15-23.8,3.53-8.92,9.09-17.04,13.77-25.5,4.46-8.07,8.32-16.56,13.56-24.09,7.85-11.27,16.6-21.9,28.89-28.93,2.16-1.23,3.6-3.69,5.44-5.52,5.25-5.2,12.85-3.2,18.73-5.99,7.05-3.35,12.46,1.06,18.1,2.95,6.92,2.32,13.83,5.35,17.02,13.46,1.3,3.3,6.24,5,8.22,8.23,4.67,7.62,9.74,15,12,24.05,1.28,5.12,5.48,9.44,7.85,14.37,4.62,9.57,5.82,20.11,7.95,30.38.66,3.17,1.84,6.22,2.78,9.33.21.71.58,1.43.58,2.14.04,8.49.74,16.8,2.14,25.28,1.4,8.48-.71,17.34-3.43,26.06-2.77,8.86-2.18,18.9,2.1,27.53.92,1.87,6.95,1.94,10.53,1.63,12.14-1.05,22.88,2.46,31.43,10.65,3.09,2.96,4.98,8.81,4.78,13.22-.47,10.34-2.73,20.59-3.89,30.92-.96,8.55-6.05,15.52-8.39,23.3-2.22,7.37-4.73,14.21-8.7,20.73-4.03,6.62-6.97,13.99-11.61,20.11-5.31,7.02-11.68,13.32-18.11,19.39-6.77,6.39-13.97,12.37-21.33,18.09-4.71,3.66-9.78,7.09-15.16,9.57-6.59,3.04-10.09,8.78-13.81,14.18-2.62,3.81-.41,7.27,4.33,8.75.71.22,1.63.33,2.04.83,4.46,5.41,11.81,5.91,16.91,9.93,4.08,3.21,7.77,7.39,10.38,11.87,2.27,3.9,2.7,8.84,4.07,13.28,2.09,6.76-.9,11.95-4.98,16.87-6.41,7.73-13.51,14.77-20.8,21.68-8.05,7.64-18.3,10.67-28.32,11.34-8.69.58-17.04,2.6-24.51,5.47-10.69,4.1-20.83,2.72-31.36,2.3-3.82-.15-7.73.42-11.51,1.13-3.51.66-7.02,1.66-10.31,3.03-2.02.84-4.88,2.48-5.1,4.08-.27,1.92,1.37,4.82,3.08,6.13,2.41,1.83,5.64,2.59,9.4,4.17-.47,5.5-.54,11.59-1.75,17.44-.4,1.93-3.66,3.4-5.8,4.79-1.54,1-4.18,1.03-4.96,2.32-3.87,6.4-10.12,9.93-15.95,13.93-5.47,3.75-11.29,6.97-16.83,10.63-2.44,1.61-4.35,4.1-6.88,5.51-3.6,2-9.56.13-10.37,6.57-10.07,2.86-15.79,12.13-24.65,16.7-3.78,1.95-8.06,2.93-12.06,4.49-1.93.76-3.68,2.01-5.62,2.74-2.2.83-4.51,1.41-6.81,1.94-2.01.47-4.56.08-6.03,1.18-7.97,6.02-16.48,2.31-24.84,1.99-1.86-.07-3.92.97-5.62,1.97-2.06,1.21-3.84,2.91-6.11,3.92-3.05,6.21-7.38,11.51-13.91,14.96-.83.44-2.16.89-2.29,1.52-1.52,7.71-9.05,9.42-13.69,13.99-8.61,8.48-16.74,17.53-25.95,25.28-4.05,3.41-9.17,5.57-12.13,10.37-.9,1.47-1.91,2.87-2.9,4.29-.73,1.04-1.27,2.54-2.28,3.01-7.68,3.52-8.3,4.76-6.44,13.5.27,1.25-.2,2.64-.18,3.96.04,2.21.18,4.43.32,6.64.14,2.23.41,4.45.5,6.68.21,5.49-1.1,10.94,3.44,15.94,2.74,3.02,2.81,8.31,5.16,11.86,4.41,6.64,3.26,14.2,4.75,21.31,1.5,7.15-.18,13.39-3.51,17.84-.1,8.9,1.6,16.58-2.33,23.91-.71,1.32-2.21,2.74-2.05,3.93,1.39,10.05-4.84,18-7.38,26.92-1.5,5.26-5.11,9.97-8.04,14.76-2.54,4.16-4.69,9.19-8.43,11.81-3.56,2.49-8.95,2.41-13.55,3.35-2.55.52-5.15.89-7.74,1.16-3.33.35-6.7.92-10.01.72-12.81-.78-24.9,1.83-36.65,6.75-2.18.91-4.82.7-7.19,1.22-2.5.55-4.91,1.48-7.41,2.04-2.72.61-5.64,1.78-8.22,1.31-5.75-1.03-11.37-2.84-16.98-4.54-.85-.26-1.5-1.57-1.96-2.54-.47-.99-.23-2.59-.93-3.18-9.41-7.92-11.04-21.49-20.97-28.93-5.5-4.12-11.36-7.76-16.96-11.76-10.1-7.21-20.34-14.26-30.03-22-2.25-1.8-3.49-6.09-3.51-9.24-.09-17.78-.04-35.57.73-53.33.44-10.22,2.17-20.41,3.73-30.54.28-1.81,2.8-3.17,3.94-4.96,6.29-9.87,15.22-16.88,24.65-23.48,2.49-1.75,4.59-4.41,6.16-7.07,3.77-6.42,8.26-12.75,10.31-19.75,1.82-6.2.88-13.25.91-19.92.06-14.88-.06-29.77-.06-44.65,0-14.76.34-29.54-.13-44.29-.1-3.24-2.25-7.37-4.8-9.4-6.03-4.79-12.92-8.5-19.36-12.79-2.04-1.36-3.78-3.18-5.65-4.81-6.38-5.58-12.8-11.13-19.12-16.79-2.44-2.19-4.62-4.67-6.96-6.98-6.09-6.01-12.22-11.97-18.28-18.01-4.23-4.21-8.23-8.66-12.57-12.75-5.98-5.65-13.7-6.76-21.45-7.94-12.56-1.91-24.78-4.59-35.71-11.93-12.01-8.06-24.7-15.1-36.89-22.9-4.27-2.73-8.38-6.01-11.8-9.74-7.98-8.69-18.91-12.62-28.48-18.74-6.43-4.11-12.92-8.94-13.78-17.05-.51-4.86,1.53-10.03,2.67-15,.45-1.96,1.73-3.72,2.37-5.65,1.57-4.73-.17-6.47-5.19-6.45-9.62.03-19.31.1-28.84-.96-10.56-1.18-21.15-3-31.43-5.67-10.42-2.71-20.6-6.51-30.64-10.46-3.46-1.36-6.26-4.51-9.22-7-4.46-3.76-9.33-7.2-13.06-11.6-6.83-8.03-10.66-17.73-10.15-28.27.24-4.95,3.99-9.63,4.85-14.66,1.49-8.71,10.19-11.19,14.1-17.74.98-1.65,3.95-3.18,5.86-3.02,5.94.5,8.23-3.33,8.57-7.67.24-3.03-1.73-6.57-3.53-9.34-1.47-2.24-4.26-3.58-6.3-5.5-7.69-7.25-14.7-15.41-23.12-21.69-12.11-9.03-20-21.8-30.7-31.89-11.13-10.49-19.16-22.51-25.65-36.22-7.09-14.97-10.99-30.24-10.15-46.78.73-14.43,13.45-28.59,27.61-29.72,5.26-.42,10.69.24,15.94,1.03,6.88,1.04,9.29-.34,9.35-7.16.13-13.42-.34-26.85-.04-40.26.45-19.65,1.3-39.29,2.12-58.92.23-5.49.58-11.02,1.6-16.4.83-4.35,3.26-8.4,4.08-12.76,2.9-15.38,13.42-27.12,19.16-41.12,13.22-9.81,25.35-22.33,44.43-17.05,3.79,1.05,7.88,1.01,11.66,2.09,10.67,3.07,15.59,12.81,21.84,20.52,4.98,6.14,7.67,14.12,11.44,21.26,6.89,13.03,13.47,26.23,20.85,38.97,4.58,7.9,10.15,15.28,15.74,22.54,3.67,4.78,7.8,9.36,12.41,13.21,3.34,2.78,7.82,4.21,12.54,6.62,2.7-7.22,5.46-13.26,7.16-19.59,1.53-5.69,4.55-7.87,10.11-10.16,8.46-3.49,13.8,1.91,19.79,4.47,7.43,3.17,13.82,8.43,17.45,16.42,2.93,6.44,7.06,12.34,9.95,18.8,1.95,4.36,3.18,9.2,3.81,13.94.58,4.3.12,8.53,3.28,12.31,1.37,1.64,1.41,4.7,1.44,7.11.13,12.64.41,25.3-.1,37.93-.22,5.35-1.71,10.82-3.58,15.88-3.95,10.7-8.3,21.06-5.61,33.01,1.7,7.57,9.02,11.67,15.62,7.18,11.74-7.96,24.5-10.1,37.84-6.52,4.04,1.08,10.53,2.23,9.96,9.43-.04.5.2,1.39.52,1.5,6.8,2.33,4.03,7.82,4.08,12.33.07,6.42,1.03,13.04-.22,19.21-1.52,7.52-4.89,14.68-7.59,21.94-.51,1.36-2.23,2.39-2.45,3.73-1.93,11.74-11.56,18.34-17.86,27.15-.98,1.37-2.22,2.6-2.98,4.08-.78,1.53-1.11,3.29-1.63,4.95,2.47.73,5.2,2.55,7.36,2.02,10.96-2.67,21.55-6.88,33.27-5.5,5.92.69,9.94,3.47,10.44,9.48.58,6.92,2.1,14.16.72,20.74-2.21,10.49-5.97,20.75-10.06,30.7-2.41,5.86-6.31,11.27-10.31,16.25-2.63,3.28-6.66,5.44-10.04,8.11-5.03,3.98-10.05,7.96-15.06,11.96-1.89,1.51-3.84,2.95-5.55,4.64-1.05,1.03-2.35,2.46-2.35,3.72,0,1.33,1.23,3.64,2.23,3.82,5.85,1.04,9.89,4.07,12.61,9.3.48.92,2.21,1.2,3.53,1.86-.43,7.41-1.02,14.72-1.16,22.03-.04,2.13,1.24,4.28,1.88,6.44.96,3.24,1.87,6.5,2.84,9.73.69,2.28,1.01,4.82,2.26,6.74,6.61,10.09,9.84,21.2,7.58,32.93-1.49,7.74-5.04,15.19-8.39,22.44-2.25,4.88-2.13,9.03,1.85,13.56,1.88,2.14,5.92,3.5,3.5,7.77-.24.42.57,1.77,1.21,2.3,10.63,8.69,21.05,17.67,32.11,25.78,5,3.66,11.14,5.97,17.07,8.05,2.36.83,3.84,1.34,5.62,3.4,1.57,1.83,5.67,2.08,8.54,1.81.87-.08,1.93-4.19,1.96-6.47.5-46.42.91-92.84,1.24-139.27.14-18.94-.21-37.88.16-56.81.23-11.62,1.85-23.22,1.99-34.84.15-12.45-.85-24.92-1.08-37.38-.21-11.16-.2-22.34-.05-33.51.34-26.21.98-52.42,1.21-78.63.22-24.78-.06-49.56.14-74.34.12-14.92.26-29.86,1.38-44.72.36-4.75,3.23-9.74,6.11-13.79,6.26-8.81,13.25-17.12,20.01-25.57,1.13-1.42,2.51-2.73,4-3.76,3.23-2.25,5.49-4.77,5.63-9.1.58-17.87,1.88-35.75,1.73-53.61-.03-3.77-4.82-7.72-7.84-11.21-6.12-7.07-14.79-10.04-22.99-13.81-5.78-2.66-11.16-6.2-16.8-9.19-11.99-6.35-24.32-12.13-35.97-19.05-9.22-5.48-17.82-12.06-26.36-18.6-14-10.73-28.04-21.44-41.46-32.87-11.76-10.01-22.99-20.69-33.88-31.64-10.23-10.28-20.51-20.68-29.3-32.16-9.56-12.49-17.41-26.29-26.02-39.51-1.77-2.72-3.87-5.27-5.31-8.15-7.02-14.05-13.83-28.2-20.8-42.28-1.82-3.67-4.63-6.97-5.83-10.8-3.72-11.78-6.77-23.77-10.28-35.61-3.55-11.98-7.67-23.81-10.88-35.88-1.69-6.35-2.53-13.06-2.75-19.64-.77-22.14-1.19-44.3-1.54-66.46-.18-11.81-.6-23.69.31-35.44.95-12.24,2.06-24.42,7.21-36.18,3.51-8.03,3.95-17.48,5.31-26.36,1.5-9.73,3.16-19.15,7.9-28.17,3.96-7.53,7.08-16.15,7.86-24.53.87-9.3,6.35-16.05,9.3-24.1,1.14-3.12,2.65-6.13,3.52-9.32,1.85-6.77,3.45-13.36,7.88-19.33,5.26-7.08,8.85-15.38,13.61-22.87,8.57-13.51,16.73-27.39,26.52-39.98,5.42-6.97,9.4-14.58,14.33-21.64,5.63-8.07,13.14-14.87,20.12-21.93,8.72-8.81,18.17-16.94,26.54-26.06,12.6-13.74,25.67-27.04,40.75-37.88,10.62-7.64,20.04-17.08,32.66-22.09,5.03-2,8.61-7.38,13.3-10.54,15.7-10.57,31.34-21.25,49.06-28.41,4.12-1.66,7.58-4.9,11.61-6.9,6.49-3.22,13.04-6.46,19.84-8.9,11.72-4.2,25.04-5.67,35.09-12.25,9.56-6.27,19.79-8.56,29.84-10.82,14.45-3.25,28.01-10.47,43.7-9.21,8.25.66,16.86-1.87,25.16-3.61C644.85.38,670.63-.11,696.51.19c16.27.19,32.58-.6,48.82.13,22.37,1,44.71,2.85,67.03,4.65,15.37,1.24,30.75,2.67,46.04,4.66,7.94,1.04,15.82,2.16,23.58,5.36,9,3.71,19.06,4.84,28.66,7.11,1.45.34,2.87.84,4.31,1.24,4.83,1.36,9.68,2.67,14.49,4.09,1.41.42,2.72,1.14,4.07,1.76,2.24,1.03,4.49,3.03,6.69,2.97,11.94-.34,21.48,6.67,32.19,10.04,8.21,2.59,16.37,5.42,24.35,8.65,8.19,3.31,16.18,7.12,24.18,10.9,7.9,3.73,15.73,7.63,23.51,11.6,2.16,1.1,3.99,2.85,6.08,4.12,2.5,1.51,5.14,2.78,7.68,4.24,5.04,2.89,10.19,5.62,15.02,8.82,7.01,4.65,13.94,9.44,20.57,14.6,3.74,2.91,6.58,6.97,10.27,9.97,3.92,3.19,8.85,5.23,12.46,8.68,7.07,6.77,16.16,11.51,20.54,21.15,1.3,2.85,5.31,4.47,8.41,6.91Z"/>
    </g>
</svg>